<?xml version="1.0" ?><svg height="52.38750mm" version="1.0" viewBox="0 0 137 198" width="36.24792mm" xmlns="http://www.w3.org/2000/svg">
  <g font-family="Helvetica" font-size="12pt" stroke-linecap="round" transform="translate(5,74)">
    <g stroke="#000000" stroke-width="1.0">
      <line x1="73.20" x2="47.00" y1="68.60" y2="68.60"/>
    </g>
    <g stroke="#000000" stroke-width="1.0">
      <line x1="73.20" x2="99.00" y1="68.60" y2="68.60"/>
    </g>
    <g stroke="#000000" stroke-width="1.0">
      <line x1="72.20" x2="52.00" y1="35.93" y2="24.27"/>
      <line x1="74.20" x2="54.00" y1="32.47" y2="20.81"/>
    </g>
    <g stroke="#000000" stroke-linecap="butt" stroke-width="1.0">
      <line x1="38.88" x2="38.98" y1="58.00" y2="45.00"/>
    </g>
    <g stroke="#000000" stroke-linecap="butt" stroke-width="1.0">
      <line x1="38.77" x2="38.67" y1="75.00" y2="92.00"/>
    </g>
    <g stroke="#000000" stroke-width="1.0">
      <line x1="73.20" x2="73.20" y1="68.60" y2="34.20"/>
    </g>
    <g stroke="#000000" stroke-linecap="butt" stroke-width="1.0">
      <line x1="30.00" x2="19.00" y1="68.60" y2="68.60"/>
    </g>
    <g stroke="#000000" stroke-width="1.0">
      <line x1="73.20" x2="73.20" y1="68.60" y2="92.00"/>
    </g>
    <g stroke="#000000" stroke-width="1.0">
      <line x1="73.20" x2="93.00" y1="34.20" y2="22.77"/>
    </g>
    <text fill="#000000" font-family="helvetica" font-size="16pt" x="35.30" y="23.00">O</text>
    <text fill="#000000" font-family="helvetica" font-size="16pt" x="94.30" y="23.00">O</text>
    <g>
      <ellipse cx="116.333" cy="9.293" fill="none" rx="5.0" ry="5.0" stroke="#000" stroke-width="1"/>
      <line fill="#000" stroke="#000" stroke-width="1" x1="113.333" x2="119.333" y1="9.293" y2="9.293"/>
    </g>
    <text fill="#000000" font-family="helvetica" font-size="16pt" x="32.30" y="45.40">H</text>
    <text fill="#000000" font-family="helvetica" font-size="16pt" x="31.30" y="109.38">H</text>
    <text fill="#000000" font-family="helvetica" font-size="16pt" x="100.30" y="74.60">H</text>
    <text fill="#000000" font-family="helvetica" font-size="16pt" x="66.30" y="109.00">H</text>
    <text fill="#000000" font-family="helvetica" font-size="12pt" x="6.30" y="73.60">H</text>
    <text fill="#000000" font-family="helvetica" font-size="16pt" x="31.30" y="74.60">N</text>
    <g>
      <ellipse cx="30.182" cy="53.67" fill="none" rx="5.0" ry="5.0" stroke="#000" stroke-width="1"/>
      <line fill="#000" stroke="#000" stroke-width="1" x1="27.182" x2="33.182" y1="53.67" y2="53.67"/>
      <line fill="#000" stroke="#000" stroke-width="1" x1="30.182" x2="30.182" y1="50.67" y2="56.67"/>
    </g>
  </g>
</svg>