<?xml version="1.0" ?><svg height="54.76875mm" version="1.0" viewBox="0 0 167 207" width="44.18542mm" xmlns="http://www.w3.org/2000/svg">
  <g font-family="Helvetica" font-size="12pt" stroke-linecap="round" transform="translate(-13,74)">
    <g stroke="#000000" stroke-width="1.0">
      <line x1="96.20" x2="70.00" y1="77.60" y2="77.60"/>
    </g>
    <g stroke="#000000" stroke-width="1.0">
      <line x1="96.20" x2="122.00" y1="77.60" y2="77.60"/>
    </g>
    <g stroke="#000000" stroke-width="1.0">
      <line x1="95.20" x2="75.00" y1="44.93" y2="33.27"/>
      <line x1="97.20" x2="77.00" y1="41.47" y2="29.81"/>
    </g>
    <g stroke="#000000" stroke-linecap="butt" stroke-width="1.0">
      <line x1="135.00" x2="152.00" y1="26.00" y2="26.00"/>
    </g>
    <g stroke="#000000" stroke-linecap="butt" stroke-width="1.0">
      <line x1="53.00" x2="41.00" y1="72.52" y2="65.59"/>
    </g>
    <g stroke="#000000" stroke-linecap="butt" stroke-width="1.0">
      <line x1="58.11" x2="51.18" y1="84.00" y2="96.00"/>
    </g>
    <g stroke="#000000" stroke-width="1.0">
      <line x1="96.20" x2="96.20" y1="77.60" y2="43.20"/>
    </g>
    <g stroke="#000000" stroke-width="1.0">
      <line x1="96.20" x2="96.20" y1="77.60" y2="101.00"/>
    </g>
    <g stroke="#000000" stroke-width="1.0">
      <line x1="96.20" x2="116.00" y1="43.20" y2="31.77"/>
    </g>
    <text fill="#000000" font-family="helvetica" font-size="16pt" x="57.30" y="32.00">O</text>
    <text fill="#000000" font-family="helvetica" font-size="16pt" x="116.30" y="32.00">O</text>
    <text fill="#000000" font-family="helvetica" font-size="16pt" x="152.30" y="32.00">H</text>
    <text fill="#000000" font-family="helvetica" font-size="16pt" x="24.30" y="66.40">H</text>
    <text fill="#000000" font-family="helvetica" font-size="16pt" x="36.30" y="113.38">H</text>
    <text fill="#000000" font-family="helvetica" font-size="16pt" x="53.30" y="83.60">N</text>
    <text fill="#000000" font-family="helvetica" font-size="16pt" x="122.30" y="83.60">H</text>
    <text fill="#000000" font-family="helvetica" font-size="16pt" x="88.30" y="118.00">H</text>
  </g>
</svg>